<?xml version="1.0" standalone="no"?>
<!DOCTYPE svg PUBLIC "-//W3C//DTD SVG 20010904//EN"
 "http://www.w3.org/TR/2001/REC-SVG-20010904/DTD/svg10.dtd">
<svg version="1.0" xmlns="http://www.w3.org/2000/svg"
 width="160.000000pt" height="160.000000pt" viewBox="0 0 160.000000 160.000000"
 preserveAspectRatio="xMidYMid meet">
<metadata>
Created by potrace 1.14, written by Peter Selinger 2001-2017
</metadata>
<g transform="translate(0.000000,160.000000) scale(0.100000,-0.100000)"
fill="#000000" stroke="none">
<path d="M616 1573 c-2 -2 -13 -5 -24 -8 -60 -11 -112 -76 -119 -149 -4 -41 0
-60 21 -99 l25 -47 -28 -48 c-74 -126 -78 -268 -9 -380 11 -18 19 -34 17 -36
-2 -2 -38 -18 -79 -37 -177 -79 -345 -199 -370 -263 -20 -54 -19 -75 6 -105
l24 -29 -25 -43 c-62 -109 -10 -230 124 -291 57 -26 72 -29 125 -23 34 3 99
20 146 37 69 26 97 31 150 29 128 -6 306 -5 369 2 57 7 70 5 136 -22 87 -37
131 -46 206 -45 124 1 234 95 243 207 6 73 -47 165 -113 196 -20 10 -72 53
-117 97 -44 43 -89 86 -100 94 -11 8 -43 33 -71 54 l-52 39 30 22 c95 71 139
166 134 292 -4 86 -8 111 -25 143 -10 19 -8 26 18 54 36 37 61 108 55 150 -21
134 -182 195 -283 106 -17 -15 -32 -20 -50 -16 -14 4 -59 9 -100 12 -70 6 -77
9 -103 40 -16 19 -38 39 -50 46 -23 12 -104 28 -111 21z m-176 -1101 c-10 -39
-21 -91 -23 -114 -5 -52 -27 -61 -52 -21 -10 15 -29 40 -42 55 -25 26 -24 48
2 48 7 0 15 4 17 9 3 9 111 100 115 97 1 -1 -7 -34 -17 -74z m750 -154 c0 -5
-4 -8 -10 -8 -5 0 -10 10 -10 23 0 18 2 19 10 7 5 -8 10 -18 10 -22z"/>
</g>
</svg>
